# AST/ASF file generated using VICON BodyLanguage
# -----------------------------------------------
:version 1.10
:name VICON
:units
  mass 1.0
  length 0.45
  angle deg
:documentation
   .ast/.asf automatically generated from VICON data using
   VICON BodyBuilder and BodyLanguage model FoxedUp or BRILLIANT.MOD
:root
   order TX TY TZ RX RY RZ
   axis XYZ
   position 0 0 0  
   orientation 0 0 0 
:bonedata
  begin
     id 1 
     name lhipjoint
     direction 0.567725 -0.736092 0.368589 
     length 2.42353 
     axis 0 0 0  XYZ
  end
  begin
     id 2 
     name lfemur
     direction 0.34202 -0.939693 0  
     length 7.24894  
     axis 0 0 20  XYZ
    dof rx ry rz
    limits (-160.0 20.0)
           (-70.0 70.0)
           (-60.0 70.0)
  end
  begin
     id 3 
     name ltibia
     direction 0.34202 -0.939693 0   
     length 7.6997   
     axis 0 0 20   XYZ
    dof rx
    limits (-10.0 170.0)
  end
  begin
     id 4 
     name lfoot
     direction 0.100767 -0.276854 0.955614   
     length 2.37556   
     axis -90 7.62852e-016 20   XYZ
    dof rx rz
    limits (-45.0 90.0)
           (-70.0 20.0)
  end
  begin
     id 5 
     name ltoes
     direction 1.53592e-011 -4.21894e-011 1   
     length 1.18363   
     axis -90 7.62852e-016 20   XYZ
    dof rx
    limits (-90.0 20.0)
  end
  begin
     id 6 
     name rhipjoint
     direction -0.556459 -0.742938 0.372017   
     length 2.4012  
     axis 0 0 0  XYZ 
  end
  begin
     id 7 
     name rfemur
     direction -0.34202 -0.939693 0   
     length 7.5119   
     axis 0 0 -20   XYZ
    dof rx ry rz
    limits (-160.0 20.0)
           (-70.0 70.0)
           (-70.0 60.0)
  end
  begin
     id 8 
     name rtibia
     direction -0.34202 -0.939693 0   
     length 7.50155   
     axis 0 0 -20   XYZ
    dof rx
    limits (-10.0 170.0)
 end
 begin
     id 9 
     name rfoot
     direction -0.118427 -0.325376 0.938139   
     length 2.32487  
     axis -90 -7.62852e-016 -20   XYZ
    dof rx rz
    limits (-45.0 90.0)
           (-20.0 70.0)
  end
  begin
     id 10 
     name rtoes
     direction -1.53525e-011 -4.21868e-011 1   
     length 1.15233   
     axis -90 -7.62852e-016 -20   XYZ
    dof rx
    limits (-90.0 20.0)
  end
  begin
     id 11 
     name lowerback
     direction 0.0287568 0.999577 -0.00434502   
     length 2.15243   
     axis 0 0 0   XYZ
    dof rx ry rz
    limits (-20.0 45.0)
           (-30.0 30.0)
           (-30.0 30.0)
  end
  begin
     id 12 
     name upperback
     direction 0.0294009 0.99956 0.00404628   
     length 2.15427   
     axis 0 0 0   XYZ
    dof rx ry rz
    limits (-20.0 45.0)
           (-30.0 30.0)
           (-30.0 30.0)
  end
  begin
     id 13 
     name thorax
     direction 0.0151014 0.999868 0.0059419   
     length 2.14898   
     axis 0 0 0   XYZ
    dof rx ry rz
    limits (-20.0 45.0)
           (-30.0 30.0)
           (-30.0 30.0)
  end
  begin
     id 14 
     name lowerneck
     direction -0.0249197 0.989906 0.139515   
     length 1.6861   
     axis 0 0 0   XYZ
    dof rx ry rz
    limits (-20.0 45.0)
           (-30.0 30.0)
           (-30.0 30.0)
  end
  begin
     id 15 
     name upperneck
     direction 0.0438463 0.988795 -0.142693   
     length 1.71276   
     axis 0 0 0   XYZ
    dof rx ry rz
    limits (-20.0 45.0)
           (-30.0 30.0)
           (-30.0 30.0)
  end
  begin
     id 16
     name head
     direction 0.0148499 0.997845 -0.0639186  
     length 1.7209  
     axis 0 0 0   XYZ
    dof rx ry rz
    limits (-20.0 45.0)
           (-30.0 30.0)
           (-30.0 30.0)
  end
  begin
     id 17 
     name lclavicle
     direction 0.940298 0.323464 -0.105876  
     length 3.9048  
     axis 0 0 0   XYZ
    dof ry rz
    limits (-20.0 10.0)
           (0.0 20.0)
  end
  begin
     id 18 
     name lhumerus
     direction 1 -4.48954e-011 -4.9675e-028   
     length 4.6851   
     axis 180 -30 -90   XYZ
    dof rx ry rz
    limits (-60.0 90.0)
           (-90.0 90.0)
           (-90.0 90.0)
  end
  begin
     id 19
     name lradius
     direction 1 -4.48992e-011 -1.03359e-026   
     length 3.39626   
     axis 180 -30 -90   XYZ
    dof rx
    limits (-10.0 170.0)
  end
  begin
     id 20
     name lwrist
     direction 1 -4.48906e-011 -1.67336e-026   
     length 1.69813   
     axis 9.90442e-015 90 90   XYZ
    dof ry
    limits (-180.0 0.0)
 end
  begin
     id 21 
     name lhand
     direction 1 -4.49006e-011 -3.34673e-026   
     length 0.486078   
     axis 2.1355e-014 90 90   XYZ
    dof rx rz
    limits (-90.0 90.0)
           (-45.0 45.0)
  end
  begin
     id 22 
     name lfingers
     direction 1 -4.48992e-011 -6.69345e-026   
     length 0.391889   
     axis 4.27099e-014 90 90   XYZ
    dof rx
    limits (0.0 90.0)
  end
  begin
     id 23
     name lthumb
     direction 0.707107 -6.34926e-011 0.707107   
     length 0.562676   
     axis -90 45 2.85299e-015   XYZ
    dof rx rz
    limits (-45.0 45.0)
           (-45.0 45.0)
  end
  begin
     id 24 
     name rclavicle
     direction -0.882459 0.414895 -0.221648   
     length 3.44646  
     axis 0 0 0   XYZ 
    dof ry rz
    limits (-10.0 20.0)
           (-20.0 0.0)
  end
  begin
     id 25 
     name rhumerus
     direction -1 -4.48962e-011 -2.37984e-027  
     length 5.55576   
     axis 180 30 90   XYZ
    dof rx ry rz
    limits (-90.0 60.0)
           (-90.0 90.0)
           (-90.0 90.0)
  end
  begin
     id 26 
     name rradius
     direction -1 -4.48982e-011 -6.86791e-027   
     length 3.32774   
     axis 180 30 90   XYZ
    dof rx
    limits (-10.0 170.0)
  end
  begin
     id 27 
     name rwrist
     direction -1 -4.48961e-011 -1.67336e-026   
     length 1.66387   
     axis 9.90442e-015 -90 -90   XYZ
    dof ry
    limits (-180.0 0.0)
  end
  begin
     id 28
     name rhand
     direction -1 -4.4897e-011 -3.34673e-026   
     length 0.507628   
     axis 2.1355e-014 -90 -90   XYZ
    dof rx rz
    limits (-90.0 90.0)
           (-45.0 45.0)
  end
  begin
     id 29
     name rfingers
     direction -1 -4.48854e-011 -6.69345e-026   
     length 0.409263   
     axis 4.27099e-014 -90 -90   XYZ
    dof rx
    limits (0.0 90.0)
  end
  begin
     id 30
     name rthumb
     direction -0.707107 -6.34913e-011 0.707107   
     length 0.587622   
     axis -90 -45 -2.85299e-015   XYZ
    dof rx rz
    limits (-45.0 45.0)
           (-45.0 45.0)
  end
:hierarchy
  begin
    root lhipjoint rhipjoint lowerback
    lhipjoint lfemur
    lfemur ltibia
    ltibia lfoot
    lfoot ltoes
    rhipjoint rfemur
    rfemur rtibia
    rtibia rfoot
    rfoot rtoes
    lowerback upperback
    upperback thorax
    thorax lowerneck lclavicle rclavicle
    lowerneck upperneck
    upperneck head
    lclavicle lhumerus
    lhumerus lradius
    lradius lwrist
    lwrist lhand lthumb
    lhand lfingers
    rclavicle rhumerus
    rhumerus rradius
    rradius rwrist
    rwrist rhand rthumb
    rhand rfingers
  end

#!OML:ASF E:\motion texture\Top Level 1\Subject 1\Session 1\male.ASF
:FULLY-SPECIFIED
:DEGREES
48
root 26.1924 17.8253 5.11151 94.4352 -82.5028 -87.4608
lowerback -0.183537 -0.740478 5.34057
upperback -0.473768 -1.18063 6.56479
thorax -0.346423 -0.688718 3.78605
lowerneck -13.4198 -3.78991 -6.1357
upperneck 23.6266 -5.81562 5.91818
head 10.0811 -2.72963 2.34748
rclavicle 9.93923e-016 -2.06736e-014
rhumerus -12.2957 -20.2712 -23.4285
rradius 47.5412
rwrist -16.4718
rhand -6.14153 -27.3213
rfingers 7.12502
rthumb 19.6963 -56.3434
lclavicle 9.93923e-016 -2.06736e-014
lhumerus -22.6476 13.9198 19.6044
lradius 39.6974
lwrist 8.25367
lhand -10.4849 26.2348
lfingers 7.12502
lthumb 15.5167 55.6322
rfemur -20.5995 -2.54204 32.0959
rtibia 19.4608
rfoot -4.01807 -10.1879
rtoes 22.6365
lfemur -16.28 -0.351385 -9.35611
ltibia 60.2423
lfoot 5.52526 -4.70949
ltoes -11.0171
49
root 26.0573 17.8455 5.10016 96.117 -82.4236 -89.3185
lowerback -0.182241 -0.644891 5.32593
upperback -0.509432 -1.05096 6.57643
thorax -0.386996 -0.624833 3.80677
lowerneck -13.402 -3.91087 -6.19609
upperneck 23.4507 -6.03933 6.22662
head 10.0426 -2.80381 2.43603
rclavicle -5.1684e-015 3.97569e-014
rhumerus -10.7759 -21.5859 -21.3597
rradius 47.4142
rwrist -17.4272
rhand -6.82451 -28.1533
rfingers 7.12502
rthumb 19.0396 -57.2414
lclavicle -5.1684e-015 3.97569e-014
lhumerus -21.0939 14.7334 16.8695
lradius 39.7543
lwrist 10.1946
lhand -11.2436 27.127
lfingers 7.12502
lthumb 14.7858 56.5796
rfemur -19.6654 -2.32648 32.2082
rtibia 19.0675
rfoot -4.32062 -10.1572
rtoes 22.5376
lfemur -17.0816 -0.168434 -9.20422
ltibia 61.1403
lfoot 4.5099 -3.83899
ltoes -11.1648
50
root 25.9224 17.8667 5.08961 97.7672 -82.36 -91.145
lowerback -0.189747 -0.549098 5.30198
upperback -0.53573 -0.921734 6.57247
thorax -0.413189 -0.560521 3.81599
lowerneck -13.3665 -4.0341 -6.25296
upperneck 23.2534 -6.26807 6.54398
head 9.99473 -2.87996 2.52639
rclavicle 3.67752e-015 2.38542e-014
rhumerus -9.22889 -23.0907 -19.448
rradius 47.2407
rwrist -18.3237
rhand -7.48364 -28.8746
rfingers 7.12502
rthumb 18.4056 -58.0238
lclavicle 3.67752e-015 2.38542e-014
lhumerus -19.5032 15.7643 14.2727
lradius 39.788
lwrist 12.062
lhand -11.9438 27.9431
lfingers 7.12502
lthumb 14.1112 57.4439
rfemur -18.7218 -2.11121 32.29
rtibia 18.6549
rfoot -4.61314 -10.1315
rtoes 22.4424
lfemur -17.853 -0.0085309 -9.08782
ltibia 61.8658
lfoot 3.588 -3.01395
ltoes -11.1714
51
root 25.7881 17.889 5.07966 99.3723 -82.3036 -92.9258
lowerback -0.189985 -0.453079 5.27429
upperback -0.563099 -0.79075 6.55781
thorax -0.444836 -0.495093 3.81616
lowerneck -13.3189 -4.1598 -6.30542
upperneck 23.0502 -6.50262 6.86663
head 9.94414 -2.9589 2.61701
rclavicle -9.64106e-015 -4.77083e-015
rhumerus -7.66685 -24.7506 -17.697
rradius 47.0338
rwrist -19.155
rhand -8.0194 -29.4084
rfingers 7.12502
rthumb 17.8902 -58.6056
lclavicle -9.64106e-015 -4.77083e-015
lhumerus -17.8897 16.9924 11.8336
lradius 39.8101
lwrist 13.8598
lhand -12.55 28.6392
lfingers 7.12502
lthumb 13.527 58.1799
rfemur -17.7714 -1.90176 32.3525
rtibia 18.2235
rfoot -4.89635 -10.1087
rtoes 22.3579
lfemur -18.5958 0.125786 -8.99469
ltibia 62.4231
lfoot 2.75308 -2.26136
ltoes -11.0317
52
root 25.6541 17.9119 5.0704 100.919 -82.2518 -94.6477
lowerback -0.190279 -0.358333 5.2486
upperback -0.585689 -0.661388 6.53403
thorax -0.471658 -0.430198 3.80553
lowerneck -13.2668 -4.286 -6.36124
upperneck 22.8409 -6.74081 7.20685
head 9.89285 -3.03883 2.71372
rclavicle 4.87022e-015 2.54444e-014
rhumerus -6.08177 -26.5515 -16.1212
rradius 46.7986
rwrist -19.8996
rhand -8.40188 -29.7131
rfingers 7.12502
rthumb 17.5221 -58.9435
lclavicle 4.87022e-015 2.54444e-014
lhumerus -16.2613 18.4096 9.57016
lradius 39.8332
lwrist 15.6026
lhand -13.0424 29.1656
lfingers 7.12502
lthumb 13.0523 58.7372
rfemur -16.8126 -1.70644 32.3989
rtibia 17.7709
rfoot -5.16845 -10.0828
rtoes 22.2822
lfemur -19.3103 0.231348 -8.92288
ltibia 62.8201
lfoot 1.97609 -1.58144
ltoes -10.822
53
root 25.5206 17.9352 5.06185 102.39 -82.2059 -96.2916
lowerback -0.196159 -0.266033 5.22462
upperback -0.601147 -0.536021 6.50237
thorax -0.487949 -0.366987 3.78551
lowerneck -13.2178 -4.41013 -6.42194
upperneck 22.6289 -6.9793 7.56828
head 9.84349 -3.1178 2.81838
rclavicle 2.5842e-015 -2.22639e-014
rhumerus -4.47111 -28.4678 -14.7285
rradius 46.5433
rwrist -20.5675
rhand -8.63444 -29.7791
rfingers 7.12502
rthumb 17.2983 -59.0293
lclavicle 2.5842e-015 -2.22639e-014
lhumerus -14.6256 20.0089 7.49111
lradius 39.8598
lwrist 17.2584
lhand -13.3665 29.4717
lfingers 7.12502
lthumb 12.7399 59.063
rfemur -15.852 -1.53104 32.429
rtibia 17.3005
rfoot -5.42606 -10.0504
rtoes 22.198
lfemur -20.0035 0.301057 -8.87273
ltibia 63.0725
lfoot 1.21799 -0.979282
ltoes -10.6374
54
root 25.3877 17.9586 5.05395 103.778 -82.1705 -97.8475
lowerback -0.198084 -0.179314 5.19783
upperback -0.615381 -0.417427 6.46431
thorax -0.50501 -0.306987 3.76038
lowerneck -13.1783 -4.53293 -6.48044
upperneck 22.4208 -7.2162 7.93221
head 9.79866 -3.1961 2.9234
rclavicle 4.96962e-016 3.02153e-014
rhumerus -2.82495 -30.4591 -13.5261
rradius 46.2666
rwrist -21.1528
rhand -8.69109 -29.5969
rfingers 7.12502
rthumb 17.2438 -58.8518
lclavicle 4.96962e-016 3.02153e-014
lhumerus -12.9953 21.7515 5.60561
lradius 39.9009
lwrist 18.8393
lhand -13.5318 29.5708
lfingers 7.12502
lthumb 12.5805 59.172
rfemur -14.8937 -1.37057 32.4372
rtibia 16.8157
rfoot -5.67231 -10.0144
rtoes 22.1185
lfemur -20.6775 0.337599 -8.84691
ltibia 63.1846
lfoot 0.433263 -0.451027
ltoes -10.626
55
root 25.2554 17.9816 5.04669 105.113 -82.1465 -99.343
lowerback -0.186897 -0.0980037 5.16456
upperback -0.639739 -0.30368 6.42249
thorax -0.539722 -0.249486 3.73509
lowerneck -13.1371 -4.65304 -6.53933
upperneck 22.2215 -7.44867 8.29139
head 9.75745 -3.27377 3.02727
rclavicle -2.48481e-015 9.54166e-015
rhumerus -1.14525 -32.4661 -12.5092
rradius 45.9733
rwrist -21.6786
rhand -8.60126 -29.2047
rfingers 7.12502
rthumb 17.3302 -58.452
lclavicle -2.48481e-015 9.54166e-015
lhumerus -11.3819 23.5757 3.91627
lradius 39.9609
lwrist 20.329
lhand -13.548 29.4965
lfingers 7.12502
lthumb 12.5649 59.0987
rfemur -13.9426 -1.20887 32.4222
rtibia 16.3247
rfoot -5.91895 -9.97861
rtoes 22.0597
lfemur -21.3345 0.3499 -8.84395
ltibia 63.1602
lfoot -0.388989 -0.00038358
ltoes -10.8081
56
root 25.1236 18.004 5.03996 106.389 -82.1296 -100.77
lowerback -0.1562 -0.0227337 5.12798
upperback -0.67834 -0.194883 6.37936
thorax -0.599945 -0.194716 3.71044
lowerneck -13.0997 -4.77121 -6.58959
upperneck 22.0343 -7.67569 8.62966
head 9.7208 -3.35098 3.12288
rclavicle 4.27387e-015 1.59028e-015
rhumerus 0.5715 -34.4439 -11.6746
rradius 45.665
rwrist -22.1664
rhand -8.42517 -28.6827
rfingers 7.12502
rthumb 17.4997 -57.915
lclavicle 4.27387e-015 1.59028e-015
lhumerus -9.78846 25.4357 2.42205
lradius 40.0391
lwrist 21.7104
lhand -13.4427 29.2941
lfingers 7.12502
lthumb 12.6664 58.89
rfemur -13.0036 -1.0424 32.3914
rtibia 15.8316
rfoot -6.1586 -9.94042
rtoes 22.0088
lfemur -21.9781 0.341311 -8.85506
ltibia 63.0038
lfoot -1.24137 0.389949
ltoes -11.1118
57
root 24.9925 18.0253 5.03372 107.614 -82.1122 -102.13
lowerback -0.112305 0.0456491 5.09764
upperback -0.734904 -0.0927597 6.33691
thorax -0.685937 -0.143711 3.68306
lowerneck -13.0534 -4.88484 -6.63571
upperneck 21.8579 -7.89283 8.94468
head 9.68537 -3.42663 3.21103
rclavicle -7.45443e-015 -1.59028e-015
rhumerus 2.33354 -36.36 -11.0244
rradius 45.3414
rwrist -22.6151
rhand -8.18695 -28.0927
rfingers 7.12502
rthumb 17.7289 -57.3045
lclavicle -7.45443e-015 -1.59028e-015
lhumerus -8.22298 27.2665 1.11328
lradius 40.1393
lwrist 23.003
lhand -13.2995 29.0253
lfingers 7.12502
lthumb 12.8045 58.6126
rfemur -12.0875 -0.862853 32.3563
rtibia 15.3461
rfoot -6.39865 -9.90672
rtoes 21.9894
lfemur -22.6134 0.325413 -8.86821
ltibia 62.7211
lfoot -2.09774 0.72553
ltoes -11.4357
